#!OML:ASF X:\für Bonn\!DataBase\2005_08_10_Bjorn_Final\c3d\bjorn.ASF
:FULLY-SPECIFIED
:DEGREES
344
root 13.5861 19.2204 -0.137592 -484.638 87.8178 -493.43
lowerback -6.29403 1.21115 -1.53495
upperback 2.09469 1.94744 -2.89804
thorax 5.76776 0.979641 -1.93715
lowerneck 2.83985 -1.6772 7.74102
upperneck 20.2918 -0.804866 -5.45396
head 5.56868 0.126208 -3.03536
rclavicle -2.98177e-015 -3.18055e-015
rhumerus -44.8496 -23.1948 -73.7886
rradius 35.227
rwrist -19.3417
rhand -7.05134 10.2306
rfingers 7.12502
rthumb 18.8214 -18.8789
lclavicle -2.98177e-015 -3.18055e-015
lhumerus -28.1488 22.5248 76.9302
lradius 28.4093
lwrist 11.9743
lhand -33.6169 3.76443
lfingers 7.12502
lthumb -6.80979 33.6349
rfemur -1.01746 -3.36252 11.2444
rtibia 21.5647
rfoot -9.61125 19.4195
rtoes -9.81897
lfemur -17.4044 18.1714 -18.3348
ltibia 31.2789
lfoot -14.4791 -20.5476
ltoes 4.45515
345
root 13.5943 19.2177 -0.142223 -481.5 87.9027 -490.107
lowerback -6.09086 1.19629 -1.5836
upperback 2.17196 1.92989 -2.91722
thorax 5.73175 0.97056 -1.93526
lowerneck 2.71218 -1.63985 7.78055
upperneck 20.2277 -0.753403 -5.60095
head 5.57098 0.138168 -3.08754
rclavicle 1.25234e-014 -1.90833e-014
rhumerus -44.1618 -23.8443 -73.5597
rradius 33.474
rwrist -16.6149
rhand -7.20237 10.1196
rfingers 7.12502
rthumb 18.6762 -19.0038
lclavicle 1.25234e-014 -1.90833e-014
lhumerus -27.2916 22.0017 77.2241
lradius 26.6045
lwrist 7.3955
lhand -34.2276 4.51026
lfingers 7.12502
lthumb -7.39929 34.3609
rfemur -0.938791 -3.01463 11.2173
rtibia 21.7618
rfoot -9.74548 19.4167
rtoes -11.5039
lfemur -17.0447 17.3306 -18.262
ltibia 31.2229
lfoot -15.0077 -19.4833
ltoes 3.35952
346
root 13.6027 19.2152 -0.146869 -478.688 88.0142 -487.123
lowerback -5.89519 1.18369 -1.67774
upperback 2.25144 1.92007 -2.94338
thorax 5.70133 0.963944 -1.91405
lowerneck 2.60246 -1.60119 7.7623
upperneck 20.1406 -0.709887 -5.67848
head 5.56388 0.146132 -3.10747
rclavicle 4.57205e-015 2.38542e-014
rhumerus -43.4312 -24.5785 -73.3134
rradius 31.632
rwrist -13.5296
rhand -7.49743 10.0668
rfingers 7.12502
rthumb 18.3924 -19.0836
lclavicle 4.57205e-015 2.38542e-014
lhumerus -26.4432 21.4497 77.5017
lradius 24.7836
lwrist 2.90766
lhand -34.5767 4.48816
lfingers 7.12502
lthumb -7.73625 34.3266
rfemur -0.909474 -2.74053 11.1665
rtibia 22.0233
rfoot -9.9741 19.366
rtoes -13.7227
lfemur -16.7056 16.6158 -18.2533
ltibia 31.1574
lfoot -15.5034 -18.5415
ltoes 2.2901
347
root 13.6098 19.2119 -0.151082 -475.968 88.1162 -484.175
lowerback -5.64437 1.16152 -1.78333
upperback 2.36457 1.89762 -2.96725
thorax 5.67406 0.950883 -1.88622
lowerneck 2.46421 -1.55362 7.7724
upperneck 20.0716 -0.651725 -5.78582
head 5.56783 0.161225 -3.14168
rclavicle 1.45113e-014 -1.74931e-014
rhumerus -42.6261 -25.2363 -73.1702
rradius 29.7554
rwrist -10.2265
rhand -8.02105 9.98235
rfingers 7.12502
rthumb 17.8886 -19.2149
lclavicle 1.45113e-014 -1.74931e-014
lhumerus -25.6037 21.1634 77.6632
lradius 22.9873
lwrist -2.10773
lhand -34.5894 4.16562
lfingers 7.12502
lthumb -7.74847 34.0036
rfemur -0.850165 -2.34262 11.1502
rtibia 22.3514
rfoot -10.1125 19.163
rtoes -15.0327
lfemur -16.3084 15.8912 -18.2302
ltibia 31.0855
lfoot -15.9603 -17.6177
ltoes 1.29271
348
root 13.6188 19.21 -0.156182 -471.447 88.225 -479.436
lowerback -5.41722 1.15624 -1.8607
upperback 2.48566 1.89649 -2.99239
thorax 5.67012 0.949321 -1.87283
lowerneck 2.36163 -1.50037 7.69755
upperneck 19.9535 -0.596369 -5.81451
head 5.55167 0.173081 -3.13539
rclavicle 1.76918e-014 -6.36111e-014
rhumerus -41.835 -26.0157 -72.973
rradius 27.8705
rwrist -6.5845
rhand -8.64238 9.82668
rfingers 7.12502
rthumb 17.2907 -19.4241
lclavicle 1.76918e-014 -6.36111e-014
lhumerus -24.8196 21.244 77.6645
lradius 21.2755
lwrist -7.90962
lhand -34.1604 3.78998
lfingers 7.12502
lthumb -7.33441 33.6429
rfemur -0.849536 -1.94225 11.1449
rtibia 22.7544
rfoot -10.145 18.9307
rtoes -15.9217
lfemur -15.9121 15.2167 -18.2148
ltibia 31.0097
lfoot -16.3831 -16.6964
ltoes 0.305093
349
root 13.6269 19.207 -0.160988 -467.348 88.2931 -475.1
lowerback -5.17951 1.13653 -1.94869
upperback 2.63765 1.87669 -3.00029
thorax 5.69126 0.937724 -1.83748
lowerneck 2.21421 -1.44713 7.67168
upperneck 19.8491 -0.539281 -5.8865
head 5.54682 0.185857 -3.15168
rclavicle 6.16232e-015 -2.54444e-014
rhumerus -41.0199 -26.7725 -72.7713
rradius 26.0472
rwrist -2.72831
rhand -9.2615 9.57439
rfingers 7.12502
rthumb 16.6947 -19.7277
lclavicle 6.16232e-015 -2.54444e-014
lhumerus -24.0147 21.7398 77.5363
lradius 19.5771
lwrist -14.3914
lhand -33.319 3.49651
lfingers 7.12502
lthumb -6.52221 33.3761
rfemur -0.861774 -1.49708 11.1851
rtibia 23.2355
rfoot -10.1204 18.6229
rtoes -16.1951
lfemur -15.5251 14.7103 -18.1788
ltibia 30.9449
lfoot -16.7597 -15.9869
ltoes -0.637694
350
root 13.6361 19.2037 -0.165206 -462.029 88.3329 -469.531
lowerback -4.9391 1.13427 -1.99633
upperback 2.80578 1.87859 -3.01855
thorax 5.72995 0.938711 -1.83338
lowerneck 2.04836 -1.3923 7.67409
upperneck 19.7387 -0.483685 -5.95672
head 5.54315 0.199396 -3.17223
rclavicle -2.18663e-015 0
rhumerus -40.2982 -27.827 -72.418
rradius 24.3027
rwrist 1.45185
rhand -9.71925 9.20934
rfingers 7.12502
rthumb 16.254 -20.1294
lclavicle -2.18663e-015 0
lhumerus -23.0917 22.2979 77.3642
lradius 17.8285
lwrist -20.9427
lhand -32.0924 3.12754
lfingers 7.12502
lthumb -5.33795 33.0403
rfemur -0.925907 -1.09387 11.2562
rtibia 23.8183
rfoot -10.0237 18.3043
rtoes -16.053
lfemur -15.1292 14.2578 -18.117
ltibia 30.8904
lfoot -17.1063 -15.3181
ltoes -1.43255
351
root 13.6444 19.1989 -0.169712 -457.698 88.3694 -464.939
lowerback -4.66731 1.12063 -2.06078
upperback 2.9705 1.86558 -3.03997
thorax 5.74638 0.932049 -1.8252
lowerneck 1.95875 -1.3395 7.65232
upperneck 19.5697 -0.431922 -5.99411
head 5.50864 0.21174 -3.1769
rclavicle 1.8487e-014 1.74931e-014
rhumerus -39.6157 -29.1751 -71.8503
rradius 22.4227
rwrist 5.91286
rhand -9.98535 8.96473
rfingers 7.12502
rthumb 15.9978 -20.3947
lclavicle 1.8487e-014 1.74931e-014
lhumerus -22.2405 22.6428 77.2451
lradius 16.3079
lwrist -27.1874
lhand -30.414 2.03336
lfingers 7.12502
lthumb -3.71727 31.9807
rfemur -1.02896 -0.741162 11.3195
rtibia 24.5163
rfoot -10.0283 17.9514
rtoes -15.9561
lfemur -14.7385 13.8462 -18.0778
ltibia 30.8496
lfoot -17.4409 -14.726
ltoes -2.25213
352
root 13.6549 19.1923 -0.174773 -451.691 88.441 -458.653
lowerback -4.40399 1.1112 -2.18974
upperback 3.15367 1.86298 -3.04322
thorax 5.78473 0.927521 -1.76071
lowerneck 1.83595 -1.27707 7.61005
upperneck 19.4253 -0.362815 -6.06045
head 5.48834 0.229334 -3.18724
rclavicle -9.14409e-015 1.11319e-014
rhumerus -39.0134 -30.6646 -71.1244
rradius 20.6146
rwrist 10.4919
rhand -10.131 8.77385
rfingers 7.12502
rthumb 15.8575 -20.5968
lclavicle -9.14409e-015 1.11319e-014
lhumerus -21.5188 22.7471 77.2121
lradius 15.1186
lwrist -33.155
lhand -28.4266 -0.253147
lfingers 7.12502
lthumb -1.79793 29.719
rfemur -1.20114 -0.437228 11.322
rtibia 25.3612
rfoot -9.93369 17.6209
rtoes -15.7181
lfemur -14.3134 13.4816 -18.0878
ltibia 30.8012
lfoot -17.7563 -14.1339
ltoes -3.09264
353
root 13.6648 19.1866 -0.17848 -446.006 88.5127 -452.71
lowerback -4.14322 1.10037 -2.33443
upperback 3.33749 1.86199 -3.07541
thorax 5.826 0.924123 -1.71743
lowerneck 1.68611 -1.21544 7.60226
upperneck 19.2796 -0.301451 -6.11264
head 5.47194 0.245717 -3.19931
rclavicle 1.61016e-014 -3.65764e-014
rhumerus -38.5813 -32.686 -70.0904
rradius 18.7648
rwrist 15.2705
rhand -10.0486 8.7611
rfingers 7.12502
rthumb 15.9369 -20.6032
lclavicle 1.61016e-014 -3.65764e-014
lhumerus -20.8844 22.4943 77.172
lradius 14.2491
lwrist -38.8997
lhand -26.3396 -3.02208
lfingers 7.12502
lthumb 0.217719 26.9576
rfemur -1.46941 -0.125823 11.331
rtibia 26.3527
rfoot -9.83946 17.1259
rtoes -15.8589
lfemur -13.9058 13.1813 -18.1225
ltibia 30.7283
lfoot -18.0249 -13.6344
ltoes -3.76039
354
root 13.6761 19.1831 -0.182686 -440.376 88.5685 -446.823
lowerback -3.874 1.08441 -2.4945
upperback 3.51355 1.85201 -3.08037
thorax 5.85272 0.914727 -1.63819
lowerneck 1.54773 -1.14514 7.5159
upperneck 19.1656 -0.23092 -6.10121
head 5.46509 0.266572 -3.17769
rclavicle -5.56597e-015 3.33958e-014
rhumerus -38.3657 -34.8874 -68.8243
rradius 17.1161
rwrist 20.0139
rhand -9.70267 8.6829
rfingers 7.12502
rthumb 16.27 -20.6545
lclavicle -5.56597e-015 3.33958e-014
lhumerus -20.3247 22.0954 77.2187
lradius 13.5757
lwrist -44.2492
lhand -24.4582 -5.42551
lfingers 7.12502
lthumb 2.03486 24.5445
rfemur -1.81877 0.10017 11.339
rtibia 27.4997
rfoot -9.81578 16.6151
rtoes -16.4211
lfemur -13.4765 12.8834 -18.1541
ltibia 30.6148
lfoot -18.2576 -13.1888
ltoes -4.3068
